<?xml version="1.0" encoding="UTF-8"?>
<svg viewBox="0 0 398 398" xmlns="http://www.w3.org/2000/svg">
<title/>
<title>Layer 1</title>
<g transform="matrix(-1.24639,0,0,1.24639,625.647,-186.586)">
<path d="m433.34896,149.0636h10.01308a2.23113,2.23113 0 0,1 2.23113,2.23113v19.29506a2.23113,2.23113 0 0,1 -2.23113,2.23113h-10.01308a2.23113,2.23113 0 0,1 -2.23113-2.23113v-19.29506a2.23113,2.23113 0 0,1 2.23113-2.23113" fill="#a4a4a4" stroke="#484848" stroke-linecap="round" stroke-linejoin="round" stroke-width="2.31199" transform="rotate(30.6234)"/>
<path d="m304.14926,349.25549-.48141,1.22237-9.96079,23.07836 2.09107,1.38598 13.43171-23.71035-3.94986-1.53071-1.13072-.44565z" fill="#6b6b6b" opacity=".63"/>
<path d="m279.17242,375.60074 .67137-1.12925 12.16572-20.46282 2.35203-.74264-10.51495,25.14016-3.62931-2.18462-1.04486-.62083z" fill="#fff" opacity=".63"/>
<path d="m433.34896,149.0636h10.01308a2.23113,2.23113 0 0,1 2.23113,2.23113v19.29506a2.23113,2.23113 0 0,1 -2.23113,2.23113h-10.01308a2.23113,2.23113 0 0,1 -2.23113-2.23113v-19.29506a2.23113,2.23113 0 0,1 2.23113-2.23113" fill="none" stroke="#484848" stroke-linecap="round" stroke-linejoin="round" stroke-width="2.31199" transform="rotate(30.6234)"/>
<path d="m431.17423,130.94939h14.51694a2.12665,2.12665 0 0,1 2.12665,2.12665v21.24953a2.12665,2.12665 0 0,1 -2.12665,2.12665h-14.51694a2.12665,2.12665 0 0,1 -2.12665-2.12665v-21.24953a2.12665,2.12665 0 0,1 2.12665-2.12665" fill="#a4a4a4" stroke="#484848" stroke-linecap="round" stroke-linejoin="round" stroke-width="2" transform="rotate(30.6234)"/>
<path d="m290.83969,352.88492 .67137-1.12925 12.16572-20.46282 2.35203-.74264-10.51495,25.14016-3.62931-2.18462-1.04486-.62083z" fill="#fff" opacity=".63"/>
<path d="m313.5184,336.70432-.48141,1.22237-9.96079,23.07835 2.09107,1.38598 13.43171-23.71035-3.94986-1.53071-1.13072-.44565z" fill="#6b6b6b" opacity=".63"/>
<path d="m431.17423,130.94939h14.51694a2.12665,2.12665 0 0,1 2.12665,2.12665v21.24953a2.12665,2.12665 0 0,1 -2.12665,2.12665h-14.51694a2.12665,2.12665 0 0,1 -2.12665-2.12665v-21.24953a2.12665,2.12665 0 0,1 2.12665-2.12665" fill="none" stroke="#484848" stroke-linecap="round" stroke-linejoin="round" stroke-width="2" transform="rotate(30.6234)"/>
<path d="m315.5,337.98718c0,9.87209-6.82766,17.875-15.25,17.875s-15.25-8.00291-15.25-17.875 6.82766-17.875 15.25-17.875 15.25,8.00291 15.25,17.875z" fill="#a4a4a4" stroke="#484848" stroke-linecap="round" stroke-linejoin="round" stroke-width="2" transform="matrix(1.09539,0,0,.93453,-9.67562,11.28572)"/>
<path d="m262.60886,380.87985c-.91165-.74629-2.24408-.61341-2.99037.29825l-8.94732,10.92982c-5.62472,6.81715-6.08148,13.60161-1.48273,20.67515l12.84694-15.69347c.37315-.45583.89285-.71083 1.43378-.76479s1.10076.0934 1.55659.46654l5.19891,4.25592c.45583.37315.71084.89286.7648,1.43379s-.0934,1.10076-.46655,1.55658l-12.76776,15.59675c7.20466,2.64994 14.41913.67272 19.46676-5.79159l8.94733-10.92981c.7463-.91165.6134-2.24407-.29825-2.99037l-1.02064-11.01267-11.63107-9.52139-10.61042,1.49129z" fill="#a4a4a4" stroke="#484848" stroke-linecap="round" stroke-linejoin="round" stroke-width="2.02354"/>
<path d="m257.5,419.48718c13.57454.0813 18.45262-9.76741 23.9375-18.8125l-.75-13.9375 4.375.5625 .25,12.5 .6875,1.875-11.0625,14.375-6.4375,3.8125-7,1-4-1.375z" fill="#808080"/>
<path d="m262.60886,380.87985c-.91165-.74629-2.24408-.61341-2.99037.29825l-8.94732,10.92982c-5.62472,6.81715-6.08148,13.60161-1.48273,20.67515l12.84694-15.69347c.37315-.45583.89285-.71083 1.43378-.76479s1.10076.0934 1.55659.46654l5.19891,4.25592c.45583.37315.71084.89286.7648,1.43379s-.0934,1.10076-.46655,1.55658l-12.76776,15.59675c7.20466,2.64994 14.41913.67272 19.46676-5.79159l8.94733-10.92981c.7463-.91165.6134-2.24407-.29825-2.99037l-1.02064-11.01267-11.63107-9.52139-10.61042,1.49129z" fill="none" stroke="#484848" stroke-linecap="round" stroke-linejoin="round" stroke-width="2.02354"/>
<path d="m249.5,408.86218c-5.72147-8.1277 5.31816-18.7374 11.625-25.9375l12.3125-1.8125c.11711,1.99743-.13962,2.03376 1.13756,3.53401-1.01727-.0122-9.55016,1.17207-10.2121,1.43773-7.60734,3.05313-17.2054,14.25804-14.86296,22.77826z" fill="#fff" opacity=".63"/>
<path d="m284.96402,369.65057c0,6.83418-5.77763,12.37437-12.90469,12.37437s-12.9047-5.54019-12.9047-12.37437 5.77763-12.37436 12.9047-12.37436 12.90469,5.54019 12.90469,12.37436z" fill="#a4a4a4" stroke="#484848" stroke-linecap="round" stroke-linejoin="round" stroke-width="2.21663" transform="matrix(.86793,-.19882,.20416,.8912,-26.86589,104.26869)"/>
<path d="m275.21243,380.99622c2.75959-5.63809 7.81294-8.67817 14.55847-9.80166-7.84082-2.00957-13.97138-.99884-14.55847,9.80166z" fill="#fff" opacity=".6298"/>
<path d="m305.64569,332.1619c.80536-12.31442 8.92035-17.24922 18.79664-18.65123-9.99538-3.7482-23.70812,5.56988-18.79664,18.65123z" fill="#fff" opacity=".6298"/>
</g>
<g transform="matrix(1.24639,0,0,1.24639,-286.691,-186.586)">
<path d="m433.34896,149.0636h10.01308a2.23113,2.23113 0 0,1 2.23113,2.23113v19.29506a2.23113,2.23113 0 0,1 -2.23113,2.23113h-10.01308a2.23113,2.23113 0 0,1 -2.23113-2.23113v-19.29506a2.23113,2.23113 0 0,1 2.23113-2.23113" fill="#a4a4a4" stroke="#484848" stroke-linecap="round" stroke-linejoin="round" stroke-width="2.31199" transform="rotate(30.6234)"/>
<path d="m304.14926,349.25549-.48141,1.22237-9.96079,23.07836 2.09107,1.38598 13.43171-23.71035-3.94986-1.53071-1.13072-.44565z" fill="#6b6b6b" opacity=".63"/>
<path d="m279.17242,375.60074 .67137-1.12925 12.16572-20.46282 2.35203-.74264-10.51495,25.14016-3.62931-2.18462-1.04486-.62083z" fill="#fff" opacity=".63"/>
<path d="m433.34896,149.0636h10.01308a2.23113,2.23113 0 0,1 2.23113,2.23113v19.29506a2.23113,2.23113 0 0,1 -2.23113,2.23113h-10.01308a2.23113,2.23113 0 0,1 -2.23113-2.23113v-19.29506a2.23113,2.23113 0 0,1 2.23113-2.23113" fill="none" stroke="#484848" stroke-linecap="round" stroke-linejoin="round" stroke-width="2.31199" transform="rotate(30.6234)"/>
<path d="m431.17423,130.94939h14.51694a2.12665,2.12665 0 0,1 2.12665,2.12665v21.24953a2.12665,2.12665 0 0,1 -2.12665,2.12665h-14.51694a2.12665,2.12665 0 0,1 -2.12665-2.12665v-21.24953a2.12665,2.12665 0 0,1 2.12665-2.12665" fill="#a4a4a4" stroke="#484848" stroke-linecap="round" stroke-linejoin="round" stroke-width="2" transform="rotate(30.6234)"/>
<path d="m290.83969,352.88492 .67137-1.12925 12.16572-20.46282 2.35203-.74264-10.51495,25.14016-3.62931-2.18462-1.04486-.62083z" fill="#fff" opacity=".63"/>
<path d="m313.5184,336.70432-.48141,1.22237-9.96079,23.07835 2.09107,1.38598 13.43171-23.71035-3.94986-1.53071-1.13072-.44565z" fill="#6b6b6b" opacity=".63"/>
<path d="m431.17423,130.94939h14.51694a2.12665,2.12665 0 0,1 2.12665,2.12665v21.24953a2.12665,2.12665 0 0,1 -2.12665,2.12665h-14.51694a2.12665,2.12665 0 0,1 -2.12665-2.12665v-21.24953a2.12665,2.12665 0 0,1 2.12665-2.12665" fill="none" stroke="#484848" stroke-linecap="round" stroke-linejoin="round" stroke-width="2" transform="rotate(30.6234)"/>
<path d="m315.5,337.98718c0,9.87209-6.82766,17.875-15.25,17.875s-15.25-8.00291-15.25-17.875 6.82766-17.875 15.25-17.875 15.25,8.00291 15.25,17.875z" fill="#a4a4a4" stroke="#484848" stroke-linecap="round" stroke-linejoin="round" stroke-width="2" transform="matrix(1.09539,0,0,.93453,-9.67562,11.28572)"/>
<path d="m262.60886,380.87985c-.91165-.74629-2.24408-.61341-2.99037.29825l-8.94732,10.92982c-5.62472,6.81715-6.08148,13.60161-1.48273,20.67515l12.84694-15.69347c.37315-.45583.89285-.71083 1.43378-.76479s1.10076.0934 1.55659.46654l5.19891,4.25592c.45583.37315.71084.89286.7648,1.43379s-.0934,1.10076-.46655,1.55658l-12.76776,15.59675c7.20466,2.64994 14.41913.67272 19.46676-5.79159l8.94733-10.92981c.7463-.91165.6134-2.24407-.29825-2.99037l-1.02064-11.01267-11.63107-9.52139-10.61042,1.49129z" fill="#a4a4a4" stroke="#484848" stroke-linecap="round" stroke-linejoin="round" stroke-width="2.02354"/>
<path d="m257.5,419.48718c13.57454.0813 18.45262-9.76741 23.9375-18.8125l-.75-13.9375 4.375.5625 .25,12.5 .6875,1.875-11.0625,14.375-6.4375,3.8125-7,1-4-1.375z" fill="#808080"/>
<path d="m262.60886,380.87985c-.91165-.74629-2.24408-.61341-2.99037.29825l-8.94732,10.92982c-5.62472,6.81715-6.08148,13.60161-1.48273,20.67515l12.84694-15.69347c.37315-.45583.89285-.71083 1.43378-.76479s1.10076.0934 1.55659.46654l5.19891,4.25592c.45583.37315.71084.89286.7648,1.43379s-.0934,1.10076-.46655,1.55658l-12.76776,15.59675c7.20466,2.64994 14.41913.67272 19.46676-5.79159l8.94733-10.92981c.7463-.91165.6134-2.24407-.29825-2.99037l-1.02064-11.01267-11.63107-9.52139-10.61042,1.49129z" fill="none" stroke="#484848" stroke-linecap="round" stroke-linejoin="round" stroke-width="2.02354"/>
<path d="m249.5,408.86218c-5.72147-8.1277 5.31816-18.7374 11.625-25.9375l12.3125-1.8125c.11711,1.99743-.13962,2.03376 1.13756,3.53401-1.01727-.0122-9.55016,1.17207-10.2121,1.43773-7.60734,3.05313-17.2054,14.25804-14.86296,22.77826z" fill="#fff" opacity=".63"/>
<path d="m284.96402,369.65057c0,6.83418-5.77763,12.37437-12.90469,12.37437s-12.9047-5.54019-12.9047-12.37437 5.77763-12.37436 12.9047-12.37436 12.90469,5.54019 12.90469,12.37436z" fill="#a4a4a4" stroke="#484848" stroke-linecap="round" stroke-linejoin="round" stroke-width="2.21663" transform="matrix(.86793,-.19882,.20416,.8912,-26.86589,104.26869)"/>
<path d="m275.21243,380.99622c2.75959-5.63809 7.81294-8.67817 14.55847-9.80166-7.84082-2.00957-13.97138-.99884-14.55847,9.80166z" fill="#fff" opacity=".6298"/>
<path d="m305.64569,332.1619c.80536-12.31442 8.92035-17.24922 18.79664-18.65123-9.99538-3.7482-23.70812,5.56988-18.79664,18.65123z" fill="#fff" opacity=".6298"/>
</g>
<g transform="matrix(-1.24639,0,0,1.24639,630.91,-187.027)">
<path d="m332.34019,435.84476h24.04163a6.36396,6.36396 0 0,1 6.36396,6.36396 6.36396,6.36396 0 0,1 -6.36396,6.36396h-24.04163a6.36396,6.36396 0 0,1 -6.36396-6.36396 6.36396,6.36396 0 0,1 6.36396-6.36396" fill="#a4a4a4" stroke="#484848" stroke-linecap="round" stroke-linejoin="round" stroke-width="2"/>
<path d="m332.34019,423.84476h24.04163a6.36396,6.36396 0 0,1 6.36396,6.36396 6.36396,6.36396 0 0,1 -6.36396,6.36396h-24.04163a6.36396,6.36396 0 0,1 -6.36396-6.36396 6.36396,6.36396 0 0,1 6.36396-6.36396" fill="#a4a4a4" stroke="#484848" stroke-linecap="round" stroke-linejoin="round" stroke-width="2"/>
<path d="m332.34019,411.84476h24.04163a6.36396,6.36396 0 0,1 6.36396,6.36396 6.36396,6.36396 0 0,1 -6.36396,6.36396h-24.04163a6.36396,6.36396 0 0,1 -6.36396-6.36396 6.36396,6.36396 0 0,1 6.36396-6.36396" fill="#a4a4a4" stroke="#484848" stroke-linecap="round" stroke-linejoin="round" stroke-width="2"/>
<path d="m331.98664,399.4704h24.04163a6.36396,6.36396 0 0,1 6.36396,6.36396 6.36396,6.36396 0 0,1 -6.36396,6.36396h-24.04163a6.36396,6.36396 0 0,1 -6.36396-6.36396 6.36396,6.36396 0 0,1 6.36396-6.36396" fill="#a4a4a4" stroke="#484848" stroke-linecap="round" stroke-linejoin="round" stroke-width="2"/>
<path d="m351.25528,398.99551c2.31033,4.01041 4.23228,8.06296 0,12.72792 2.65839,3.69002 5.3002,7.38269-.17677,12.37437 5.11624,4.78108 3.11215,8.37544.35355,11.84404 4.54166,7.65675.51212,8.75905 0,12.55114l10.6066.17678-.88388-2.65165 2.12132-3.18198-1.06066-4.5962-3.35876-2.65165 3.53554-2.65165 .7071-3.88909-3.71231-4.94974 2.47488-2.2981 .88388-4.41942-4.24264-5.83363 3.18198-2.47487 1.23744-3.71231-2.2981-4.41942-2.2981-1.94454-6.18718.53033-.88389-.53033z" fill="#808080"/>
<path d="m336.97433,399.12051c-2.31033,4.01041-4.23228,8.06296 0,12.72792-2.65839,3.69002-5.3002,7.38269.17677,12.37437-5.11624,4.78108-3.11215,8.37544-.35355,11.84404-4.54166,7.65675-.51212,8.75905 0,12.55114l-10.6066.17678 .88388-2.65165-2.12132-3.18198 1.06066-4.5962 3.35877-2.65165-3.53555-2.65165-.7071-3.88909 3.71232-4.94974-2.47488-2.2981-.88388-4.41942 4.24264-5.83363-3.18198-2.47487-1.23744-3.71231 2.2981-4.41942 2.2981-1.94454 6.18718.53033 .88389-.53033z" fill="#fff" opacity=".63"/>
<path d="m332.02769,436.46976h24.66663a6.05146,6.05146 0 0,1 6.05146,6.05146 6.05146,6.05146 0 0,1 -6.05146,6.05146h-24.66663a6.05146,6.05146 0 0,1 -6.05146-6.05146 6.05146,6.05146 0 0,1 6.05146-6.05146" fill="none" stroke="#484848" stroke-linecap="round" stroke-linejoin="round" stroke-width="2"/>
<path d="m331.96519,424.59476h24.79163a5.98896,5.98896 0 0,1 5.98896,5.98896 5.98896,5.98896 0 0,1 -5.98896,5.98896h-24.79163a5.98896,5.98896 0 0,1 -5.98896-5.98896 5.98896,5.98896 0 0,1 5.98896-5.98896" fill="none" stroke="#484848" stroke-linecap="round" stroke-linejoin="round" stroke-width="2"/>
<path d="m332.09019,412.34476h24.54163a6.11396,6.11396 0 0,1 6.11396,6.11396 6.11396,6.11396 0 0,1 -6.11396,6.11396h-24.54163a6.11396,6.11396 0 0,1 -6.11396-6.11396 6.11396,6.11396 0 0,1 6.11396-6.11396" fill="none" stroke="#484848" stroke-linecap="round" stroke-linejoin="round" stroke-width="2"/>
<path d="m331.98664,399.4704h24.04163a6.36396,6.36396 0 0,1 6.36396,6.36396 6.36396,6.36396 0 0,1 -6.36396,6.36396h-24.04163a6.36396,6.36396 0 0,1 -6.36396-6.36396 6.36396,6.36396 0 0,1 6.36396-6.36396" fill="none" stroke="#484848" stroke-linecap="round" stroke-linejoin="round" stroke-width="2"/>
<path d="m363.09933,466.70099c-3.85101.31482-61.68516,1.01263-62.93251-.35355 0-13.57072 14.69666-24.57196 32.82591-24.57196 10.30845,0 23.00333,1.78911 29.02136,4.87788 1.00721,1.84891 1.08524,14.19334 1.08524,20.04763z" fill="#a4a4a4" stroke="#484848" stroke-linecap="round" stroke-linejoin="round" stroke-width="2"/>
<path d="m300.3436,463.87256c31.84604-1.12449 62.48876,3.72692 56.03822-19.09189l6.18718,2.12132 .53033,20.15254-62.57895-.17677-.17678-3.0052z" fill="#808080"/>
<path d="m363.09933,466.70099c-3.85101.31482-61.68516,1.01263-62.93251-.35355 0-13.57072 14.69666-24.57196 32.82591-24.57196 10.30845,0 23.00333,1.78911 29.02136,4.87788 1.00721,1.84891 1.08524,14.19334 1.08524,20.04763z" fill="none" stroke="#484848" stroke-linecap="round" stroke-linejoin="round" stroke-width="2"/>
<path d="m306.28073,456.84891c7.08147-6.01287 14.23572-10.68777 31.48523-12.14129-12.86148-2.16717-25.95015,1.39388-31.48523,12.14129z" fill="#fff" opacity=".6298"/>
</g>
<path d="m455.80331,113.75012h18.07528v39.69473h-18.07528z" fill="#a4a4a4" stroke="#484848" stroke-linecap="round" stroke-linejoin="round" stroke-width="2.80684" transform="matrix(.88811,0,0,.88811,-159.959,.19757)"/>
<path d="m450.61929,115.16339h21.92845v9.12223h-21.92845z" fill="#e3e3e3" transform="matrix(.88811,0,0,.88811,-159.959,.19757)"/>
<path d="m450.5535,142.92482h21.92845v9.12223h-21.92845z" opacity=".35" transform="matrix(.88811,0,0,.88811,-159.959,3.1976)"/>
<path d="m348.47379,175.96576h51.19998v19.28802h-51.19998z" fill="#a4a4a4" stroke="#484848" stroke-linecap="round" stroke-linejoin="round" stroke-width="2.80684" transform="matrix(.88811,0,0,.88811,-159.959,27.1976)"/>
<path d="m344.33487,195.33414h59.82867v19.14533h-59.82867z" fill="#a4a4a4" stroke="#484848" stroke-linecap="round" stroke-linejoin="round" stroke-width="2.80684" transform="matrix(.88811,0,0,.88811,-159.959,27.1976)"/>
<path d="m307.51907,204.38031h129.85512v115.09629h-129.85512z" fill="#a4a4a4" stroke="#484848" stroke-linecap="round" stroke-linejoin="round" stroke-width="2.80684" transform="matrix(.88811,0,0,.88811,-159.959,27.1976)"/>
<path d="m270.55179,113.75012h18.07528v39.69473h-18.07528z" fill="#a4a4a4" stroke="#484848" stroke-linecap="round" stroke-linejoin="round" stroke-width="2.80684" transform="matrix(.88811,0,0,.88811,-159.959,.19757)"/>
<path d="m271.66122,115.03182h21.92845v9.12223h-21.92845z" fill="#e3e3e3" transform="matrix(.88811,0,0,.88811,-159.959,.19757)"/>
<path d="m272.01208,143.10025h21.92845v9.12223h-21.92845z" opacity=".35" transform="matrix(.88811,0,0,.88811,-159.959,3.1976)"/>
<path d="m287.2608,88.99226h169.30867v87.08388h-169.30867z" fill="#a4a4a4" stroke="#484848" stroke-linecap="round" stroke-linejoin="round" stroke-width="2.80684" transform="matrix(.88811,0,0,.88811,-159.959,.19757)"/>
<path d="m432.52048,90.35857h22.6827v92.50289h-22.6827c6.55323-30.8343 10.45347-61.66858 0-92.50289z" opacity=".3285" transform="matrix(.88811,0,0,.88811,-159.959,.19757)"/>
<path d="m279.80783,139.30937h23.15972l21.6834,22.99712h92.63888l24.63602-22.99712h23.15973v47.40944h-185.27776v-47.40944z" fill="#a4a4a4" stroke="#484848" stroke-linecap="round" stroke-linejoin="round" stroke-width="2.80684" transform="matrix(.88811,0,0,.88811,-159.959,27.1976)"/>
<path d="m353.55338,256.10944c0,6.41575-4.8618,11.61675-10.85915,11.61675s-10.85914-5.201-10.85914-11.61675 4.86181-11.61676 10.85914-11.61676 10.85915,5.201 10.85915,11.61676z" fill="#fff" stroke="#484848" transform="matrix(1.6145,0,0,1.50921,-409.631,-280.644)"/>
<path d="m353.55338,256.10944c0,6.41575-4.8618,11.61675-10.85915,11.61675s-10.85914-5.201-10.85914-11.61675 4.86181-11.61676 10.85914-11.61676 10.85915,5.201 10.85915,11.61676z" fill="#fff" stroke="#484848" transform="matrix(1.6145,0,0,1.50921,-357.065,-281.588)"/>
<path d="m349.26025,252.06883c0,2.78946-2.77009,5.05077-6.18718,5.05077s-6.18719-2.26131-6.18719-5.05077 2.7701-5.05076 6.18719-5.05076 6.18718,2.2613 6.18718,5.05076z" transform="matrix(1.78448,0,0,2.18598,-464.629,-442.694)"/>
<path d="m349.26025,252.06883c0,2.78946-2.77009,5.05077-6.18718,5.05077s-6.18719-2.26131-6.18719-5.05077 2.7701-5.05076 6.18719-5.05076 6.18718,2.2613 6.18718,5.05076z" transform="matrix(1.78448,0,0,2.18598,-421.064,-441.324)"/>
<path d="m290.04471,136.0784 1.41767-42.8845 74.07319-1.06324-67.6937,6.37951-7.79717,37.56823z" fill="#e5e5e5" transform="matrix(.88811,0,0,.88811,-159.959,.19757)"/>
<path d="m442.444,140.686 21.265-.089v44.657h-34.024c2.949-9.248 4.722-19.083-.176-32.254l12.935-12.314z" opacity=".3285" transform="matrix(.88811,0,0,.88811,-159.959,27.1976)"/>
<path d="m282.627,150.21 .134,33.993 61.936.055-56.331-5.333-5.739-28.715z" fill="#e5e5e5" transform="matrix(.88811,0,0,.88811,-159.959,27.1976)"/>
<path d="m365.88998,45.84377h6.45041l8.93131,43.16803h-24.80921l9.42749-43.16803z" fill="#a4a4a4" stroke="#484848" stroke-width="2.80684" transform="matrix(.88811,0,0,.88811,-159.959,.19757)"/>
<path d="m244.30539,194.46489c0,6.54128-4.98618,11.84404-11.13693,11.84404s-11.13693-5.30276-11.13693-11.84404 4.98617-11.84404 11.13693-11.84404 11.13693,5.30276 11.13693,11.84404z" fill="#604aff" stroke="#00054d" stroke-width="2" transform="matrix(1.24639,0,0,1.24639,-122.322,-211.823)"/>
<path d="m358.20386,27.63989c7.07404-4.26973 14.72793-3.84633 22.80961.03944-6.98156-8.26794-14.31893-11.81103-22.80961-.03944z" fill="#fff" opacity=".6298" transform="matrix(.88811,0,0,.88811,-159.959,.19757)"/>
<path d="m355.86646,38.80854c10.23301,6.98326 19.55773,7.88086 27.45441-.78943-2.00826,11.64211-20.57608,18.2087-27.45441.78943z" opacity=".35" transform="matrix(.88811,0,0,.88811,-159.959,.19757)"/>
<path d="m347.17623,288.72556h50.36084a3.39385,3.39385 0 0,1 3.39385,3.39385v.18855a3.39385,3.39385 0 0,1 -3.39385,3.39385h-50.36084a3.39385,3.39385 0 0,1 -3.39385-3.39385v-.18855a3.39385,3.39385 0 0,1 3.39385-3.39385" fill="#484848" stroke="#484848" stroke-linecap="round" stroke-linejoin="round" stroke-width="1.79513" transform="matrix(.88811,0,0,.88811,-159.959,27.1976)"/>
<path d="m347.87795,302.05804h50.36084a3.39385,3.39385 0 0,1 3.39385,3.39385v.18855a3.39385,3.39385 0 0,1 -3.39385,3.39385h-50.36084a3.39385,3.39385 0 0,1 -3.39385-3.39385v-.18855a3.39385,3.39385 0 0,1 3.39385-3.39385" fill="#484848" stroke="#484848" stroke-linecap="round" stroke-linejoin="round" stroke-width="1.79513" transform="matrix(.88811,0,0,.88811,-159.959,27.1976)"/>
<path d="m342.5,330.98718c0,3.38275-3.02208,6.125-6.75,6.125s-6.75-2.74225-6.75-6.125 3.02208-6.125 6.75-6.125 6.75,2.74226 6.75,6.125z" fill="#f00" stroke="#484848" stroke-linecap="round" stroke-linejoin="round" stroke-width="2" transform="matrix(1.18905,0,0,1.31038,-270.317,-140.855)"/>
<path d="m342.5,330.98718c0,3.38275-3.02208,6.125-6.75,6.125s-6.75-2.74225-6.75-6.125 3.02208-6.125 6.75-6.125 6.75,2.74226 6.75,6.125z" fill="#f00" stroke="#484848" stroke-linecap="round" stroke-linejoin="round" stroke-width="2" transform="matrix(1.18905,0,0,1.31038,-185.562,-140.855)"/>
<path d="m318.21026,212.74498h107.94194a3.39385,3.39385 0 0,1 3.39385,3.39385v63.38333a3.39385,3.39385 0 0,1 -3.39385,3.39385h-107.94194a3.39385,3.39385 0 0,1 -3.39385-3.39385v-63.38333a3.39385,3.39385 0 0,1 3.39385-3.39385" fill="#dbfffc" stroke="#484848" stroke-linecap="round" stroke-linejoin="round" stroke-width="2.80684" transform="matrix(.88811,0,0,.88811,-159.959,27.1976)"/>
<path d="m315.5181,253.44417h13.3325l9.82394-30.17354 5.96454,30.5244 7.36796-13.3325 11.22736,29.82269 6.66625-19.29703 15.43763-.35086 6.31539-23.15644 6.31539,37.5415 6.3154-24.55986 3.50855,12.63079h20.3496" fill="none" stroke="#00a799" stroke-linecap="round" stroke-linejoin="round" stroke-width="2.80684" transform="matrix(.88811,0,0,.88811,-159.959,27.1976)"/>
<path d="m318.21906,279.67407 .0257-57.89452c-.12743-3.82557 2.92752-5.79903 5.9573-5.92792l98.44167-.2484-94.57273,5.72474c-3.36632.42555-4.78087,2.24519-4.87535,5.00776l-5.15209,43.33889 7e-005,5e-005 .17542,9.9994z" fill="#fff" opacity=".95" transform="matrix(.88811,0,0,.88811,-159.959,27.1976)"/>
<path d="m318.21026,212.74498h107.94194a3.39385,3.39385 0 0,1 3.39385,3.39385v63.38333a3.39385,3.39385 0 0,1 -3.39385,3.39385h-107.94194a3.39385,3.39385 0 0,1 -3.39385-3.39385v-63.38333a3.39385,3.39385 0 0,1 3.39385-3.39385" fill="none" stroke="#484848" stroke-linecap="round" stroke-linejoin="round" stroke-width="2.80684" transform="matrix(.88811,0,0,.88811,-159.959,27.1976)"/>
<path d="m318.38507,296.71375c4.26567-2.31678 8.88099-2.08704 13.75425.0213-4.20989-4.48626-8.63435-6.40876-13.75425-.0213z" fill="#fff" opacity=".6298" transform="matrix(.88811,0,0,.88811,-159.959,27.1976)"/>
<path d="m413.90054,296.65173c4.26567-2.31678 8.88098-2.08704 13.75425.0213-4.2099-4.48626-8.63435-6.40877-13.75425-.0213z" fill="#fff" opacity=".6298" transform="matrix(.88811,0,0,.88811,-159.959,27.1976)"/>
<g transform="matrix(1.24639,0,0,1.24639,-286.691,-186.586)">
<path d="m332.34019,435.84476h24.04163a6.36396,6.36396 0 0,1 6.36396,6.36396 6.36396,6.36396 0 0,1 -6.36396,6.36396h-24.04163a6.36396,6.36396 0 0,1 -6.36396-6.36396 6.36396,6.36396 0 0,1 6.36396-6.36396" fill="#a4a4a4" stroke="#484848" stroke-linecap="round" stroke-linejoin="round" stroke-width="2"/>
<path d="m332.34019,423.84476h24.04163a6.36396,6.36396 0 0,1 6.36396,6.36396 6.36396,6.36396 0 0,1 -6.36396,6.36396h-24.04163a6.36396,6.36396 0 0,1 -6.36396-6.36396 6.36396,6.36396 0 0,1 6.36396-6.36396" fill="#a4a4a4" stroke="#484848" stroke-linecap="round" stroke-linejoin="round" stroke-width="2"/>
<path d="m332.34019,411.84476h24.04163a6.36396,6.36396 0 0,1 6.36396,6.36396 6.36396,6.36396 0 0,1 -6.36396,6.36396h-24.04163a6.36396,6.36396 0 0,1 -6.36396-6.36396 6.36396,6.36396 0 0,1 6.36396-6.36396" fill="#a4a4a4" stroke="#484848" stroke-linecap="round" stroke-linejoin="round" stroke-width="2"/>
<path d="m331.98664,399.4704h24.04163a6.36396,6.36396 0 0,1 6.36396,6.36396 6.36396,6.36396 0 0,1 -6.36396,6.36396h-24.04163a6.36396,6.36396 0 0,1 -6.36396-6.36396 6.36396,6.36396 0 0,1 6.36396-6.36396" fill="#a4a4a4" stroke="#484848" stroke-linecap="round" stroke-linejoin="round" stroke-width="2"/>
<path d="m351.25528,398.99551c2.31033,4.01041 4.23228,8.06296 0,12.72792 2.65839,3.69002 5.3002,7.38269-.17677,12.37437 5.11624,4.78108 3.11215,8.37544.35355,11.84404 4.54166,7.65675.51212,8.75905 0,12.55114l10.6066.17678-.88388-2.65165 2.12132-3.18198-1.06066-4.5962-3.35876-2.65165 3.53554-2.65165 .7071-3.88909-3.71231-4.94974 2.47488-2.2981 .88388-4.41942-4.24264-5.83363 3.18198-2.47487 1.23744-3.71231-2.2981-4.41942-2.2981-1.94454-6.18718.53033-.88389-.53033z" fill="#808080"/>
<path d="m336.97433,399.12051c-2.31033,4.01041-4.23228,8.06296 0,12.72792-2.65839,3.69002-5.3002,7.38269.17677,12.37437-5.11624,4.78108-3.11215,8.37544-.35355,11.84404-4.54166,7.65675-.51212,8.75905 0,12.55114l-10.6066.17678 .88388-2.65165-2.12132-3.18198 1.06066-4.5962 3.35877-2.65165-3.53555-2.65165-.7071-3.88909 3.71232-4.94974-2.47488-2.2981-.88388-4.41942 4.24264-5.83363-3.18198-2.47487-1.23744-3.71231 2.2981-4.41942 2.2981-1.94454 6.18718.53033 .88389-.53033z" fill="#fff" opacity=".63"/>
<path d="m332.02769,436.46976h24.66663a6.05146,6.05146 0 0,1 6.05146,6.05146 6.05146,6.05146 0 0,1 -6.05146,6.05146h-24.66663a6.05146,6.05146 0 0,1 -6.05146-6.05146 6.05146,6.05146 0 0,1 6.05146-6.05146" fill="none" stroke="#484848" stroke-linecap="round" stroke-linejoin="round" stroke-width="2"/>
<path d="m331.96519,424.59476h24.79163a5.98896,5.98896 0 0,1 5.98896,5.98896 5.98896,5.98896 0 0,1 -5.98896,5.98896h-24.79163a5.98896,5.98896 0 0,1 -5.98896-5.98896 5.98896,5.98896 0 0,1 5.98896-5.98896" fill="none" stroke="#484848" stroke-linecap="round" stroke-linejoin="round" stroke-width="2"/>
<path d="m332.09019,412.34476h24.54163a6.11396,6.11396 0 0,1 6.11396,6.11396 6.11396,6.11396 0 0,1 -6.11396,6.11396h-24.54163a6.11396,6.11396 0 0,1 -6.11396-6.11396 6.11396,6.11396 0 0,1 6.11396-6.11396" fill="none" stroke="#484848" stroke-linecap="round" stroke-linejoin="round" stroke-width="2"/>
<path d="m331.98664,399.4704h24.04163a6.36396,6.36396 0 0,1 6.36396,6.36396 6.36396,6.36396 0 0,1 -6.36396,6.36396h-24.04163a6.36396,6.36396 0 0,1 -6.36396-6.36396 6.36396,6.36396 0 0,1 6.36396-6.36396" fill="none" stroke="#484848" stroke-linecap="round" stroke-linejoin="round" stroke-width="2"/>
<path d="m363.09933,466.70099c-3.85101.31482-61.68516,1.01263-62.93251-.35355 0-13.57072 14.69666-24.57196 32.82591-24.57196 10.30845,0 23.00333,1.78911 29.02136,4.87788 1.00721,1.84891 1.08524,14.19334 1.08524,20.04763z" fill="#a4a4a4" stroke="#484848" stroke-linecap="round" stroke-linejoin="round" stroke-width="2"/>
<path d="m300.3436,463.87256c31.84604-1.12449 62.48876,3.72692 56.03822-19.09189l6.18718,2.12132 .53033,20.15254-62.57895-.17677-.17678-3.0052z" fill="#808080"/>
<path d="m363.09933,466.70099c-3.85101.31482-61.68516,1.01263-62.93251-.35355 0-13.57072 14.69666-24.57196 32.82591-24.57196 10.30845,0 23.00333,1.78911 29.02136,4.87788 1.00721,1.84891 1.08524,14.19334 1.08524,20.04763z" fill="none" stroke="#484848" stroke-linecap="round" stroke-linejoin="round" stroke-width="2"/>
<path d="m306.28073,456.84891c7.08147-6.01287 14.23572-10.68777 31.48523-12.14129-12.86148-2.16717-25.95015,1.39388-31.48523,12.14129z" fill="#fff" opacity=".6298"/>
</g>
</svg>
