<?xml version="1.0" encoding="utf-8"?>
<!-- Generator: Adobe Illustrator 18.1.1, SVG Export Plug-In . SVG Version: 6.00 Build 0)  -->
<svg version="1.1" id="Layer_1" xmlns="http://www.w3.org/2000/svg" xmlns:xlink="http://www.w3.org/1999/xlink" x="0px" y="0px"
	 viewBox="-32.5 113.3 586.1 586.1" enable-background="new -32.5 113.3 586.1 586.1" xml:space="preserve">
<title></title>
<title>Layer 1</title>
<g transform="matrix(-1.24639,0,0,1.24639,625.647,-186.586)">
	<path fill="#A4A4A4" stroke="#484848" stroke-width="2.312" stroke-linecap="round" stroke-linejoin="round" d="M186.8,528.4
		l13.2,7.8c1.6,1,2.2,3.1,1.2,4.7l0,0l-15.1,25.5c-1,1.6-3.1,2.2-4.7,1.2l0,0l-13.2-7.8c-1.6-1-2.2-3.1-1.2-4.7l0,0l15.1-25.5
		C183,528,185.1,527.4,186.8,528.4L186.8,528.4"/>
	<path opacity="0.63" fill="#6B6B6B" enable-background="new    " d="M197.8,528.8l-0.7,1.9l-15.3,35.5l3.2,2.1l20.7-36.5l-6.1-2.4
		L197.8,528.8L197.8,528.8z"/>
	<path opacity="0.63" fill="#FFFFFF" enable-background="new    " d="M159.4,569.3l1-1.7l18.7-31.5l3.6-1.1l-16.2,38.7l-5.6-3.4
		L159.4,569.3L159.4,569.3z"/>
	<path fill="none" stroke="#484848" stroke-width="2.312" stroke-linecap="round" stroke-linejoin="round" d="M186.8,528.4l13.2,7.8
		c1.6,1,2.2,3.1,1.2,4.7l0,0l-15.1,25.5c-1,1.6-3.1,2.2-4.7,1.2l0,0l-13.2-7.8c-1.6-1-2.2-3.1-1.2-4.7l0,0l15.1-25.5
		C183,528,185.1,527.4,186.8,528.4L186.8,528.4"/>
	<path fill="#A4A4A4" stroke="#484848" stroke-width="2" stroke-linecap="round" stroke-linejoin="round" d="M198.1,502.7l19.2,11.4
		c1.6,0.9,2.1,2.9,1.1,4.5l-16.6,28.1c-0.9,1.6-2.9,2.1-4.5,1.1l-19.2-11.4c-1.6-0.9-2.1-2.9-1.1-4.5l16.6-28.1
		C194.5,502.3,196.5,501.8,198.1,502.7"/>
	<path opacity="0.63" fill="#FFFFFF" enable-background="new    " d="M177.3,534.3l1-1.7l18.7-31.5l3.6-1.1l-16.2,38.7l-5.6-3.4
		L177.3,534.3L177.3,534.3z"/>
	<path opacity="0.63" fill="#6B6B6B" enable-background="new    " d="M212.2,509.5l-0.7,1.9l-15.3,35.5l3.2,2.1l20.7-36.5l-6.1-2.4
		L212.2,509.5z"/>
	<path fill="none" stroke="#484848" stroke-width="2" stroke-linecap="round" stroke-linejoin="round" d="M198.1,502.7l19.2,11.4
		c1.6,0.9,2.1,2.9,1.1,4.5l-16.6,28.1c-0.9,1.6-2.9,2.1-4.5,1.1l-19.2-11.4c-1.6-0.9-2.1-2.9-1.1-4.5l16.6-28.1
		C194.5,502.3,196.5,501.8,198.1,502.7"/>
	<path fill="#A4A4A4" stroke="#484848" stroke-width="2" stroke-linecap="round" stroke-linejoin="round" d="M246.6,494.8
		c0,14.2-11.5,25.7-25.7,25.7s-25.7-11.5-25.7-25.7s11.5-25.7,25.7-25.7S246.6,480.6,246.6,494.8z"/>
	<path fill="#A4A4A4" stroke="#484848" stroke-width="2.0235" stroke-linecap="round" stroke-linejoin="round" d="M133.9,577.4
		c-1.4-1.1-3.5-0.9-4.6,0.5l-13.8,16.8c-8.6,10.5-9.4,20.9-2.3,31.8l19.8-24.1c0.6-0.7,1.4-1.1,2.2-1.2s1.7,0.1,2.4,0.7l8,6.5
		c0.7,0.6,1.1,1.4,1.2,2.2s-0.1,1.7-0.7,2.4l-19.6,24c11.1,4.1,22.2,1,29.9-8.9l13.8-16.8c1.1-1.4,0.9-3.5-0.5-4.6l-1.6-16.9
		l-17.9-14.6L133.9,577.4L133.9,577.4z"/>
	<path fill="#808080" d="M126.1,636.8c20.9,0.1,28.4-15,36.8-28.9l-1.2-21.4l6.7,0.9l0.4,19.2l1.1,2.9l-17,22.1l-9.9,5.9l-10.8,1.5
		L126.1,636.8z"/>
	<path fill="none" stroke="#484848" stroke-width="2.0235" stroke-linecap="round" stroke-linejoin="round" d="M133.9,577.4
		c-1.4-1.1-3.5-0.9-4.6,0.5l-13.8,16.8c-8.6,10.5-9.4,20.9-2.3,31.8l19.8-24.1c0.6-0.7,1.4-1.1,2.2-1.2s1.7,0.1,2.4,0.7l8,6.5
		c0.7,0.6,1.1,1.4,1.2,2.2s-0.1,1.7-0.7,2.4l-19.6,24c11.1,4.1,22.2,1,29.9-8.9l13.8-16.8c1.1-1.4,0.9-3.5-0.5-4.6l-1.6-16.9
		l-17.9-14.6L133.9,577.4L133.9,577.4z"/>
	<path opacity="0.63" fill="#FFFFFF" enable-background="new    " d="M113.8,620.4c-8.8-12.5,8.2-28.8,17.9-39.9l18.9-2.8
		c0.2,3.1-0.2,3.1,1.7,5.4c-1.6,0-14.7,1.8-15.7,2.2C124.9,590.1,110.1,607.3,113.8,620.4L113.8,620.4z"/>
	<path fill="#A4A4A4" stroke="#484848" stroke-width="2.2166" stroke-linecap="round" stroke-linejoin="round" d="M185.1,571.5
		c2.1,9.4-3.8,18.7-13.3,20.9s-19-3.6-21.1-13c-2.1-9.4,3.8-18.7,13.3-20.9S183,562.1,185.1,571.5z"/>
	<path opacity="0.6298" fill="#FFFFFF" enable-background="new    " d="M153.3,577.6c4.2-8.7,12-13.3,22.4-15.1
		C163.6,559.4,154.2,561,153.3,577.6z"/>
	<path opacity="0.6298" fill="#FFFFFF" enable-background="new    " d="M200.1,502.5c1.2-18.9,13.7-26.5,28.9-28.7
		C213.6,468,192.5,482.4,200.1,502.5L200.1,502.5z"/>
</g>
<g transform="matrix(1.24639,0,0,1.24639,-286.691,-186.586)">
	<path fill="#A4A4A4" stroke="#484848" stroke-width="2.312" stroke-linecap="round" stroke-linejoin="round" d="M333,528.4
		l13.2,7.8c1.6,1,2.2,3.1,1.2,4.7l0,0l-15.1,25.5c-1,1.6-3.1,2.2-4.7,1.2l0,0l-13.2-7.8c-1.6-1-2.2-3.1-1.2-4.7l0,0l15.1-25.5
		C329.2,528,331.4,527.4,333,528.4L333,528.4"/>
	<path opacity="0.63" fill="#6B6B6B" enable-background="new    " d="M344,528.8l-0.7,1.9L328,566.1l3.2,2.1l20.7-36.5l-6.1-2.4
		L344,528.8L344,528.8z"/>
	<path opacity="0.63" fill="#FFFFFF" enable-background="new    " d="M305.6,569.3l1-1.7l18.7-31.5l3.6-1.1l-16.2,38.7l-5.6-3.4
		L305.6,569.3L305.6,569.3z"/>
	<path fill="none" stroke="#484848" stroke-width="2.312" stroke-linecap="round" stroke-linejoin="round" d="M333,528.4l13.2,7.8
		c1.6,1,2.2,3.1,1.2,4.7l0,0l-15.1,25.5c-1,1.6-3.1,2.2-4.7,1.2l0,0l-13.2-7.8c-1.6-1-2.2-3.1-1.2-4.7l0,0l15.1-25.5
		C329.2,528,331.4,527.4,333,528.4L333,528.4"/>
	<path fill="#A4A4A4" stroke="#484848" stroke-width="2" stroke-linecap="round" stroke-linejoin="round" d="M344.3,502.7l19.2,11.4
		c1.6,0.9,2.1,2.9,1.1,4.5L348,546.7c-0.9,1.6-2.9,2.1-4.5,1.1l-19.2-11.4c-1.6-0.9-2.1-2.9-1.1-4.5l16.6-28.1
		C340.7,502.3,342.7,501.8,344.3,502.7"/>
	<path opacity="0.63" fill="#FFFFFF" enable-background="new    " d="M323.5,534.3l1-1.7l18.7-31.5l3.6-1.1l-16.2,38.7l-5.6-3.4
		L323.5,534.3L323.5,534.3z"/>
	<path opacity="0.63" fill="#6B6B6B" enable-background="new    " d="M358.4,509.5l-0.7,1.9l-15.3,35.5l3.2,2.1l20.7-36.5l-6.1-2.4
		L358.4,509.5z"/>
	<path fill="none" stroke="#484848" stroke-width="2" stroke-linecap="round" stroke-linejoin="round" d="M344.3,502.7l19.2,11.4
		c1.6,0.9,2.1,2.9,1.1,4.5L348,546.7c-0.9,1.6-2.9,2.1-4.5,1.1l-19.2-11.4c-1.6-0.9-2.1-2.9-1.1-4.5l16.6-28.1
		C340.7,502.3,342.7,501.8,344.3,502.7"/>
	<path fill="#A4A4A4" stroke="#484848" stroke-width="2" stroke-linecap="round" stroke-linejoin="round" d="M392.9,494.8
		c0,14.2-11.5,25.7-25.7,25.7s-25.7-11.5-25.7-25.7s11.5-25.7,25.7-25.7S392.9,480.6,392.9,494.8z"/>
	<path fill="#A4A4A4" stroke="#484848" stroke-width="2.0235" stroke-linecap="round" stroke-linejoin="round" d="M280.1,577.4
		c-1.4-1.1-3.5-0.9-4.6,0.5l-13.8,16.8c-8.6,10.5-9.4,20.9-2.3,31.8l19.8-24.1c0.6-0.7,1.4-1.1,2.2-1.2c0.8-0.1,1.7,0.1,2.4,0.7
		l8,6.5c0.7,0.6,1.1,1.4,1.2,2.2c0.1,0.8-0.1,1.7-0.7,2.4l-19.6,24c11.1,4.1,22.2,1,29.9-8.9l13.8-16.8c1.1-1.4,0.9-3.5-0.5-4.6
		l-1.6-16.9l-17.9-14.6L280.1,577.4L280.1,577.4z"/>
	<path fill="#808080" d="M272.3,636.8c20.9,0.1,28.4-15,36.8-28.9l-1.2-21.4l6.7,0.9l0.4,19.2l1.1,2.9l-17,22.1l-9.9,5.9l-10.8,1.5
		L272.3,636.8z"/>
	<path fill="none" stroke="#484848" stroke-width="2.0235" stroke-linecap="round" stroke-linejoin="round" d="M280.1,577.4
		c-1.4-1.1-3.5-0.9-4.6,0.5l-13.8,16.8c-8.6,10.5-9.4,20.9-2.3,31.8l19.8-24.1c0.6-0.7,1.4-1.1,2.2-1.2c0.8-0.1,1.7,0.1,2.4,0.7
		l8,6.5c0.7,0.6,1.1,1.4,1.2,2.2c0.1,0.8-0.1,1.7-0.7,2.4l-19.6,24c11.1,4.1,22.2,1,29.9-8.9l13.8-16.8c1.1-1.4,0.9-3.5-0.5-4.6
		l-1.6-16.9l-17.9-14.6L280.1,577.4L280.1,577.4z"/>
	<path opacity="0.63" fill="#FFFFFF" enable-background="new    " d="M260,620.4c-8.8-12.5,8.2-28.8,17.9-39.9l18.9-2.8
		c0.2,3.1-0.2,3.1,1.7,5.4c-1.6,0-14.7,1.8-15.7,2.2C271.1,590.1,256.4,607.3,260,620.4L260,620.4z"/>
	<path fill="#A4A4A4" stroke="#484848" stroke-width="2.2166" stroke-linecap="round" stroke-linejoin="round" d="M331.4,571.5
		c2.1,9.4-3.8,18.7-13.3,20.9s-19-3.6-21.1-13s3.8-18.7,13.3-20.9S329.2,562.1,331.4,571.5z"/>
	<path opacity="0.6298" fill="#FFFFFF" enable-background="new    " d="M299.5,577.6c4.2-8.7,12-13.3,22.4-15.1
		C309.8,559.4,300.4,561,299.5,577.6z"/>
	<path opacity="0.6298" fill="#FFFFFF" enable-background="new    " d="M346.3,502.5c1.2-18.9,13.7-26.5,28.9-28.7
		C359.8,468,338.8,482.4,346.3,502.5L346.3,502.5z"/>
</g>
<g transform="matrix(-1.24639,0,0,1.24639,630.91,-187.027)">
	<path fill="#A4A4A4" stroke="#484848" stroke-width="2" stroke-linecap="round" stroke-linejoin="round" d="M238.9,661.7h37
		c5.4,0,9.8,4.4,9.8,9.8s-4.4,9.8-9.8,9.8h-37c-5.4,0-9.8-4.4-9.8-9.8S233.5,661.7,238.9,661.7"/>
	<path fill="#A4A4A4" stroke="#484848" stroke-width="2" stroke-linecap="round" stroke-linejoin="round" d="M238.9,643.3h37
		c5.4,0,9.8,4.4,9.8,9.8c0,5.4-4.4,9.8-9.8,9.8h-37c-5.4,0-9.8-4.4-9.8-9.8C229.1,647.6,233.5,643.3,238.9,643.3"/>
	<path fill="#A4A4A4" stroke="#484848" stroke-width="2" stroke-linecap="round" stroke-linejoin="round" d="M238.9,624.8h37
		c5.4,0,9.8,4.4,9.8,9.8c0,5.4-4.4,9.8-9.8,9.8h-37c-5.4,0-9.8-4.4-9.8-9.8C229.1,629.2,233.5,624.8,238.9,624.8"/>
	<path fill="#A4A4A4" stroke="#484848" stroke-width="2" stroke-linecap="round" stroke-linejoin="round" d="M238.3,605.8h37
		c5.4,0,9.8,4.4,9.8,9.8s-4.4,9.8-9.8,9.8h-37c-5.4,0-9.8-4.4-9.8-9.8S232.9,605.8,238.3,605.8"/>
	<path fill="#808080" d="M267.9,605.1c3.6,6.2,6.5,12.4,0,19.6c4.1,5.7,8.2,11.4-0.3,19c7.9,7.4,4.8,12.9,0.5,18.2
		c7,11.8,0.8,13.5,0,19.3l16.3,0.3l-1.4-4.1l3.3-4.9l-1.6-7.1l-5.2-4.1l5.4-4.1l1.1-6l-5.7-7.6l3.8-3.5l1.4-6.8l-6.5-9l4.9-3.8
		l1.9-5.7l-3.5-6.8l-3.5-3l-9.5,0.8L267.9,605.1L267.9,605.1z"/>
	<path opacity="0.63" fill="#FFFFFF" enable-background="new    " d="M246,605.2c-3.6,6.2-6.5,12.4,0,19.6c-4.1,5.7-8.2,11.4,0.3,19
		c-7.9,7.4-4.8,12.9-0.5,18.2c-7,11.8-0.8,13.5,0,19.3l-16.3,0.3l1.4-4.1l-3.3-4.9l1.6-7.1l5.2-4.1l-5.4-4.1l-1.1-6l5.7-7.6
		l-3.8-3.5l-1.4-6.8l6.5-9l-4.9-3.8L228,615l3.5-6.8l3.5-3l9.5,0.8L246,605.2L246,605.2z"/>
	<path fill="none" stroke="#484848" stroke-width="2" stroke-linecap="round" stroke-linejoin="round" d="M238.4,662.7h37.9
		c5.1,0,9.3,4.2,9.3,9.3s-4.2,9.3-9.3,9.3h-37.9c-5.1,0-9.3-4.2-9.3-9.3S233.2,662.7,238.4,662.7"/>
	<path fill="none" stroke="#484848" stroke-width="2" stroke-linecap="round" stroke-linejoin="round" d="M238.3,644.4h38.1
		c5.1,0,9.2,4.1,9.2,9.2c0,5.1-4.1,9.2-9.2,9.2h-38.1c-5.1,0-9.2-4.1-9.2-9.2C229.1,648.5,233.2,644.4,238.3,644.4"/>
	<path fill="none" stroke="#484848" stroke-width="2" stroke-linecap="round" stroke-linejoin="round" d="M238.5,625.6h37.7
		c5.2,0,9.4,4.2,9.4,9.4c0,5.2-4.2,9.4-9.4,9.4h-37.7c-5.2,0-9.4-4.2-9.4-9.4C229.1,629.8,233.3,625.6,238.5,625.6"/>
	<path fill="none" stroke="#484848" stroke-width="2" stroke-linecap="round" stroke-linejoin="round" d="M238.3,605.8h37
		c5.4,0,9.8,4.4,9.8,9.8s-4.4,9.8-9.8,9.8h-37c-5.4,0-9.8-4.4-9.8-9.8S232.9,605.8,238.3,605.8"/>
	<path fill="#A4A4A4" stroke="#484848" stroke-width="2" stroke-linecap="round" stroke-linejoin="round" d="M286.2,709.2
		c-5.9,0.5-94.9,1.6-96.8-0.5c0-20.9,22.6-37.8,50.5-37.8c15.9,0,35.4,2.8,44.6,7.5C286,681.2,286.2,700.2,286.2,709.2L286.2,709.2z
		"/>
	<path fill="#808080" d="M189.7,704.8c49-1.7,96.1,5.7,86.2-29.4l9.5,3.3l0.8,31l-96.2-0.3L189.7,704.8z"/>
	<path fill="none" stroke="#484848" stroke-width="2" stroke-linecap="round" stroke-linejoin="round" d="M286.2,709.2
		c-5.9,0.5-94.9,1.6-96.8-0.5c0-20.9,22.6-37.8,50.5-37.8c15.9,0,35.4,2.8,44.6,7.5C286,681.2,286.2,700.2,286.2,709.2L286.2,709.2z
		"/>
	<path opacity="0.6298" fill="#FFFFFF" enable-background="new    " d="M198.8,694c10.9-9.2,21.9-16.4,48.4-18.7
		C227.4,672,207.3,677.5,198.8,694z"/>
</g>
<path fill="#A4A4A4" stroke="#484848" stroke-width="2.8068" stroke-linecap="round" stroke-linejoin="round" d="M376.5,245.6h24.7
	v54.2h-24.7V245.6z"/>
<path fill="#E3E3E3" d="M369.4,247.6h29.9V260h-29.9V247.6z"/>
<path opacity="0.35" enable-background="new    " d="M369.3,290.1h29.9v12.5h-29.9V290.1z"/>
<path fill="#A4A4A4" stroke="#484848" stroke-width="2.8068" stroke-linecap="round" stroke-linejoin="round" d="M229.9,372.1h69.9
	v26.3h-69.9V372.1z"/>
<path fill="#A4A4A4" stroke="#484848" stroke-width="2.8068" stroke-linecap="round" stroke-linejoin="round" d="M224.3,398.6H306
	v26.1h-81.7V398.6z"/>
<path fill="#A4A4A4" stroke="#484848" stroke-width="2.8068" stroke-linecap="round" stroke-linejoin="round" d="M174,410.9h177.3
	v157.2H174L174,410.9z"/>
<path fill="#A4A4A4" stroke="#484848" stroke-width="2.8068" stroke-linecap="round" stroke-linejoin="round" d="M123.5,245.6h24.7
	v54.2h-24.7V245.6z"/>
<path fill="#E3E3E3" d="M125,247.4H155v12.5H125V247.4z"/>
<path opacity="0.35" enable-background="new    " d="M125.5,290.3h29.9v12.5h-29.9V290.3z"/>
<path fill="#A4A4A4" stroke="#484848" stroke-width="2.8068" stroke-linecap="round" stroke-linejoin="round" d="M146.3,211.8h231.2
	v118.9H146.3V211.8z"/>
<path opacity="0.3285" enable-background="new    " d="M344.7,213.7h31V340h-31C353.6,297.9,359,255.8,344.7,213.7L344.7,213.7z"/>
<path fill="#A4A4A4" stroke="#484848" stroke-width="2.8068" stroke-linecap="round" stroke-linejoin="round" d="M136.1,322.1h31.6
	l29.6,31.4h126.5l33.6-31.4h31.6v64.7h-253L136.1,322.1L136.1,322.1z"/>
<path fill="#FFFFFF" stroke="#484848" d="M247.8,252.8c0,14.9-12.1,27-27,27c-14.9,0-27-12.1-27-27s12.1-27,27-27
	C235.8,225.8,247.8,237.9,247.8,252.8z"/>
<path fill="#FFFFFF" stroke="#484848" d="M328.7,251.4c0,14.9-12.1,27-27,27c-14.9,0-27-12.1-27-27c0-14.9,12.1-27,27-27
	C316.6,224.4,328.7,236.5,328.7,251.4z"/>
<path d="M243.9,256.6c0,9.4-7.6,17-17,17c-9.4,0-17-7.6-17-17s7.6-17,17-17S243.9,247.2,243.9,256.6z"/>
<path d="M310.9,258.7c0,9.4-7.6,17-17,17c-9.4,0-17-7.6-17-17s7.6-17,17-17C303.3,241.7,310.9,249.3,310.9,258.7z"/>
<path fill="#E5E5E5" d="M150.1,276.1l1.9-58.6l101.2-1.5l-92.4,8.7L150.1,276.1L150.1,276.1z"/>
<path opacity="0.3285" enable-background="new    " d="M358.3,323.9l29-0.1v61h-46.5c4-12.6,6.4-26.1-0.2-44L358.3,323.9z"/>
<path fill="#E5E5E5" d="M140,337l0.2,46.4l84.6,0.1l-76.9-7.3L140,337L140,337z"/>
<path fill="#A4A4A4" stroke="#484848" stroke-width="2.8068" d="M253.7,152.9h8.8l12.2,59h-33.9
	C240.8,211.9,253.7,152.9,253.7,152.9z"/>
<path fill="#008075" stroke="#00054D" stroke-width="2" d="M280.1,137c0,12.5-9.6,22.7-21.3,22.7c-11.8,0-21.3-10.2-21.3-22.7
	s9.6-22.7,21.3-22.7C270.6,114.3,280.1,124.4,280.1,137z"/>
<path opacity="0.6298" fill="#FFFFFF" enable-background="new    " d="M243.2,128c9.7-5.8,20.1-5.3,31.1,0.1
	C264.8,116.8,254.8,112,243.2,128z"/>
<path opacity="0.35" enable-background="new    " d="M240,143.3c14,9.5,26.7,10.8,37.5-1.1C274.8,158.1,249.4,167.1,240,143.3z"/>
<path fill="#484848" stroke="#484848" stroke-width="1.7951" stroke-linecap="round" stroke-linejoin="round" d="M228.1,526.1h68.8
	c2.6,0,4.6,2.1,4.6,4.6c0,0,0,0,0,0v0.3c0,2.6-2.1,4.6-4.6,4.6c0,0,0,0,0,0h-68.8c-2.6,0-4.6-2.1-4.6-4.6c0,0,0,0,0,0v-0.3
	C223.5,528.2,225.6,526.1,228.1,526.1C228.1,526.1,228.1,526.1,228.1,526.1"/>
<path fill="#484848" stroke="#484848" stroke-width="1.7951" stroke-linecap="round" stroke-linejoin="round" d="M229.1,544.3h68.8
	c2.6,0,4.6,2.1,4.6,4.6c0,0,0,0,0,0v0.3c0,2.6-2.1,4.6-4.6,4.6c0,0,0,0,0,0h-68.8c-2.6,0-4.6-2.1-4.6-4.6c0,0,0,0,0,0V549
	C224.5,546.4,226.5,544.3,229.1,544.3C229.1,544.3,229.1,544.3,229.1,544.3"/>
<path fill="#FF0000" stroke="#484848" stroke-width="2" stroke-linecap="round" stroke-linejoin="round" d="M210.6,540.3
	c0,6.8-5.5,12.3-12.3,12.3c-6.8,0-12.3-5.5-12.3-12.3s5.5-12.3,12.3-12.3C205,528,210.6,533.5,210.6,540.3z"/>
<path fill="#FF0000" stroke="#484848" stroke-width="2" stroke-linecap="round" stroke-linejoin="round" d="M340.9,540.3
	c0,6.8-5.5,12.3-12.3,12.3c-6.8,0-12.3-5.5-12.3-12.3s5.5-12.3,12.3-12.3C335.4,528,340.9,533.5,340.9,540.3z"/>
<path fill="#DBFFFC" stroke="#484848" stroke-width="2.8068" stroke-linecap="round" stroke-linejoin="round" d="M188.6,422.4H336
	c2.6,0,4.6,2.1,4.6,4.6l0,0v86.6c0,2.6-2.1,4.6-4.6,4.6c0,0,0,0,0,0H188.6c-2.6,0-4.6-2.1-4.6-4.6c0,0,0,0,0,0V427
	C184,424.4,186,422.4,188.6,422.4L188.6,422.4"/>
<path fill="none" stroke="#00A799" stroke-width="2.8068" stroke-linecap="round" stroke-linejoin="round" d="M184.9,477.9h18.2
	l13.4-41.2l8.1,41.7l10.1-18.2l15.3,40.7l9.1-26.4l21.1-0.5l8.6-31.6l8.6,51.3l8.6-33.5l4.8,17.2h27.8"/>
<path opacity="0.95" fill="#FFFFFF" enable-background="new    " d="M188.6,513.8l0-79.1c-0.2-5.2,4-7.9,8.1-8.1l134.4-0.3
	l-129.2,7.8c-4.6,0.6-6.5,3.1-6.7,6.8l-7,59.2l0,0L188.6,513.8L188.6,513.8z"/>
<path fill="none" stroke="#484848" stroke-width="2.8068" stroke-linecap="round" stroke-linejoin="round" d="M188.6,422.4H336
	c2.6,0,4.6,2.1,4.6,4.6l0,0v86.6c0,2.6-2.1,4.6-4.6,4.6c0,0,0,0,0,0H188.6c-2.6,0-4.6-2.1-4.6-4.6c0,0,0,0,0,0V427
	C184,424.4,186,422.4,188.6,422.4L188.6,422.4"/>
<path opacity="0.6298" fill="#FFFFFF" enable-background="new    " d="M188.8,537c5.8-3.2,12.1-2.9,18.8,0
	C201.9,530.9,195.8,528.3,188.8,537z"/>
<path opacity="0.6298" fill="#FFFFFF" enable-background="new    " d="M319.3,536.9c5.8-3.2,12.1-2.9,18.8,0
	C332.3,530.8,326.3,528.2,319.3,536.9z"/>
<g transform="matrix(1.24639,0,0,1.24639,-286.691,-186.586)">
	<path fill="#A4A4A4" stroke="#484848" stroke-width="2" stroke-linecap="round" stroke-linejoin="round" d="M387.4,661.9h37
		c5.4,0,9.8,4.4,9.8,9.8s-4.4,9.8-9.8,9.8h-37c-5.4,0-9.8-4.4-9.8-9.8S382,661.9,387.4,661.9"/>
	<path fill="#A4A4A4" stroke="#484848" stroke-width="2" stroke-linecap="round" stroke-linejoin="round" d="M387.4,643.5h37
		c5.4,0,9.8,4.4,9.8,9.8s-4.4,9.8-9.8,9.8h-37c-5.4,0-9.8-4.4-9.8-9.8S382,643.5,387.4,643.5"/>
	<path fill="#A4A4A4" stroke="#484848" stroke-width="2" stroke-linecap="round" stroke-linejoin="round" d="M387.4,625h37
		c5.4,0,9.8,4.4,9.8,9.8c0,5.4-4.4,9.8-9.8,9.8h-37c-5.4,0-9.8-4.4-9.8-9.8C377.6,629.4,382,625,387.4,625"/>
	<path fill="#A4A4A4" stroke="#484848" stroke-width="2" stroke-linecap="round" stroke-linejoin="round" d="M386.8,606h37
		c5.4,0,9.8,4.4,9.8,9.8s-4.4,9.8-9.8,9.8h-37c-5.4,0-9.8-4.4-9.8-9.8S381.4,606,386.8,606"/>
	<path fill="#808080" d="M416.4,605.2c3.6,6.2,6.5,12.4,0,19.6c4.1,5.7,8.2,11.4-0.3,19c7.9,7.4,4.8,12.9,0.5,18.2
		c7,11.8,0.8,13.5,0,19.3l16.3,0.3l-1.4-4.1l3.3-4.9l-1.6-7.1l-5.2-4.1l5.4-4.1l1.1-6l-5.7-7.6l3.8-3.5l1.4-6.8l-6.5-9l4.9-3.8
		l1.9-5.7l-3.5-6.8l-3.5-3l-9.5,0.8L416.4,605.2L416.4,605.2z"/>
	<path opacity="0.63" fill="#FFFFFF" enable-background="new    " d="M394.5,605.4c-3.6,6.2-6.5,12.4,0,19.6
		c-4.1,5.7-8.2,11.4,0.3,19c-7.9,7.4-4.8,12.9-0.5,18.2c-7,11.8-0.8,13.5,0,19.3l-16.3,0.3l1.4-4.1l-3.3-4.9l1.6-7.1l5.2-4.1
		l-5.4-4.1l-1.1-6l5.7-7.6l-3.8-3.5l-1.4-6.8l6.5-9l-4.9-3.8l-1.9-5.7l3.5-6.8l3.5-3l9.5,0.8L394.5,605.4L394.5,605.4z"/>
	<path fill="none" stroke="#484848" stroke-width="2" stroke-linecap="round" stroke-linejoin="round" d="M386.9,662.9h37.9
		c5.1,0,9.3,4.2,9.3,9.3s-4.2,9.3-9.3,9.3h-37.9c-5.1,0-9.3-4.2-9.3-9.3S381.7,662.9,386.9,662.9"/>
	<path fill="none" stroke="#484848" stroke-width="2" stroke-linecap="round" stroke-linejoin="round" d="M386.8,644.6h38.1
		c5.1,0,9.2,4.1,9.2,9.2c0,5.1-4.1,9.2-9.2,9.2h-38.1c-5.1,0-9.2-4.1-9.2-9.2C377.6,648.7,381.7,644.6,386.8,644.6"/>
	<path fill="none" stroke="#484848" stroke-width="2" stroke-linecap="round" stroke-linejoin="round" d="M387,625.8h37.7
		c5.2,0,9.4,4.2,9.4,9.4c0,5.2-4.2,9.4-9.4,9.4H387c-5.2,0-9.4-4.2-9.4-9.4C377.6,630,381.8,625.8,387,625.8"/>
	<path fill="none" stroke="#484848" stroke-width="2" stroke-linecap="round" stroke-linejoin="round" d="M386.8,606h37
		c5.4,0,9.8,4.4,9.8,9.8s-4.4,9.8-9.8,9.8h-37c-5.4,0-9.8-4.4-9.8-9.8S381.4,606,386.8,606"/>
	<path fill="#A4A4A4" stroke="#484848" stroke-width="2" stroke-linecap="round" stroke-linejoin="round" d="M434.7,709.4
		c-5.9,0.5-94.9,1.6-96.8-0.5c0-20.9,22.6-37.8,50.5-37.8c15.9,0,35.4,2.8,44.6,7.5C434.5,681.4,434.7,700.4,434.7,709.4
		L434.7,709.4z"/>
	<path fill="#808080" d="M338.2,705c49-1.7,96.1,5.7,86.2-29.4l9.5,3.3l0.8,31l-96.2-0.3L338.2,705z"/>
	<path fill="none" stroke="#484848" stroke-width="2" stroke-linecap="round" stroke-linejoin="round" d="M434.7,709.4
		c-5.9,0.5-94.9,1.6-96.8-0.5c0-20.9,22.6-37.8,50.5-37.8c15.9,0,35.4,2.8,44.6,7.5C434.5,681.4,434.7,700.4,434.7,709.4
		L434.7,709.4z"/>
	<path opacity="0.6298" fill="#FFFFFF" enable-background="new    " d="M347.3,694.2c10.9-9.2,21.9-16.4,48.4-18.7
		C375.9,672.2,355.8,677.7,347.3,694.2z"/>
</g>
</svg>
